# xmcd CD database file generated by OrangeCD 5.2
#
# Track frame offsets:
#	150
#	11755
#	28565
#	44580
#	61927
#	75980
#	89100
#	101800
#	116437
#	131822
#	149907
#	168480
#	185607
#	201790
#	216672
#
# Disc length: 3110 seconds
#
# Revision: 1
# Processed by: cddbd v1.5PL3 Copyright (c) Steve Scherf et al.
# Submitted via: OrangeCD 5.2
#
DISCID=e70c240f
DTITLE=Bo Göran Svensson - Förbannad
DYEAR=1900
DGENRE=Country
TTITLE0=Förbannad
TTITLE1=400 spänn
TTITLE2=Jag kan inte hjälpa
TTITLE3=Rabbemos
TTITLE4=Kvinna
TTITLE5=Jag vill ha sommar
TTITLE6=Var sekund
TTITLE7=Dig har jag glömt
TTITLE8=Ann Kristin
TTITLE9=Tre goda skäl
TTITLE10=Anna Elin
TTITLE11=En vacker saga
TTITLE12=En sommarkväld på Österlen
TTITLE13=Mitt livs novell
TTITLE14=Min lille bo
EXTD=
EXTT0=
EXTT1=
EXTT2=
EXTT3=
EXTT4=
EXTT5=
EXTT6=
EXTT7=
EXTT8=
EXTT9=
EXTT10=
EXTT11=
EXTT12=
EXTT13=
EXTT14=
PLAYORDER=
